<svg xmlns="http://www.w3.org/2000/svg" width="860" height="420">
<rect width="100%" height="100%" fill="#f6f8fb"/>
<text x="430.0" y="30" text-anchor="middle" font-family="sans-serif" font-size="22" fill="#1f2a37">Runtime by Model (seconds)</text>
<line x1="80" y1="330" x2="830" y2="330" stroke="#4b5563" stroke-width="1.4"/>
<line x1="80" y1="60" x2="80" y2="330" stroke="#4b5563" stroke-width="1.4"/>
<line x1="80" y1="330.00" x2="830" y2="330.00" stroke="#d1d5db" stroke-width="1"/>
<text x="70" y="335.00" text-anchor="end" font-family="sans-serif" font-size="12" fill="#374151">0.000</text>
<line x1="80" y1="262.50" x2="830" y2="262.50" stroke="#d1d5db" stroke-width="1"/>
<text x="70" y="267.50" text-anchor="end" font-family="sans-serif" font-size="12" fill="#374151">0.037</text>
<line x1="80" y1="195.00" x2="830" y2="195.00" stroke="#d1d5db" stroke-width="1"/>
<text x="70" y="200.00" text-anchor="end" font-family="sans-serif" font-size="12" fill="#374151">0.074</text>
<line x1="80" y1="127.50" x2="830" y2="127.50" stroke="#d1d5db" stroke-width="1"/>
<text x="70" y="132.50" text-anchor="end" font-family="sans-serif" font-size="12" fill="#374151">0.111</text>
<line x1="80" y1="60.00" x2="830" y2="60.00" stroke="#d1d5db" stroke-width="1"/>
<text x="70" y="65.00" text-anchor="end" font-family="sans-serif" font-size="12" fill="#374151">0.147</text>
<rect x="115.62" y="281.47" width="116.25" height="48.53" fill="#059669" rx="6"/>
<text x="173.75" y="354" text-anchor="middle" font-family="sans-serif" font-size="13" fill="#111827">mlp</text>
<text x="173.75" y="273.47" text-anchor="middle" font-family="sans-serif" font-size="12" fill="#111827">0.0265</text>
<rect x="303.12" y="60.00" width="116.25" height="270.00" fill="#059669" rx="6"/>
<text x="361.25" y="354" text-anchor="middle" font-family="sans-serif" font-size="13" fill="#111827">lstm</text>
<text x="361.25" y="52.00" text-anchor="middle" font-family="sans-serif" font-size="12" fill="#111827">0.1474</text>
<rect x="490.62" y="307.70" width="116.25" height="22.30" fill="#059669" rx="6"/>
<text x="548.75" y="354" text-anchor="middle" font-family="sans-serif" font-size="13" fill="#111827">transformer</text>
<text x="548.75" y="299.70" text-anchor="middle" font-family="sans-serif" font-size="12" fill="#111827">0.0122</text>
<rect x="678.12" y="260.42" width="116.25" height="69.58" fill="#059669" rx="6"/>
<text x="736.25" y="354" text-anchor="middle" font-family="sans-serif" font-size="13" fill="#111827">mamba</text>
<text x="736.25" y="252.42" text-anchor="middle" font-family="sans-serif" font-size="12" fill="#111827">0.0380</text>
<text x="20" y="210.00" transform="rotate(-90 20,210.00)" text-anchor="middle" font-family="sans-serif" font-size="13" fill="#374151">seconds</text>
</svg>