<svg xmlns="http://www.w3.org/2000/svg" width="920" height="440">
<rect width="100%" height="100%" fill="#f6f8fb"/>
<text x="460.0" y="30" text-anchor="middle" font-family="sans-serif" font-size="22" fill="#1f2a37">Mean Runtime by Model (seconds)</text>
<line x1="84" y1="348" x2="890" y2="348" stroke="#4b5563" stroke-width="1.4"/>
<line x1="84" y1="60" x2="84" y2="348" stroke="#4b5563" stroke-width="1.4"/>
<line x1="84" y1="348.00" x2="890" y2="348.00" stroke="#d1d5db" stroke-width="1"/>
<text x="74" y="353.00" text-anchor="end" font-family="sans-serif" font-size="12" fill="#374151">0.000</text>
<line x1="84" y1="276.00" x2="890" y2="276.00" stroke="#d1d5db" stroke-width="1"/>
<text x="74" y="281.00" text-anchor="end" font-family="sans-serif" font-size="12" fill="#374151">0.066</text>
<line x1="84" y1="204.00" x2="890" y2="204.00" stroke="#d1d5db" stroke-width="1"/>
<text x="74" y="209.00" text-anchor="end" font-family="sans-serif" font-size="12" fill="#374151">0.132</text>
<line x1="84" y1="132.00" x2="890" y2="132.00" stroke="#d1d5db" stroke-width="1"/>
<text x="74" y="137.00" text-anchor="end" font-family="sans-serif" font-size="12" fill="#374151">0.199</text>
<line x1="84" y1="60.00" x2="890" y2="60.00" stroke="#d1d5db" stroke-width="1"/>
<text x="74" y="65.00" text-anchor="end" font-family="sans-serif" font-size="12" fill="#374151">0.265</text>
<rect x="122.28" y="326.08" width="124.93" height="21.92" fill="#059669" rx="6"/>
<text x="184.75" y="372" text-anchor="middle" font-family="sans-serif" font-size="13" fill="#111827">mlp</text>
<text x="184.75" y="318.08" text-anchor="middle" font-family="sans-serif" font-size="12" fill="#111827">0.0202</text>
<rect x="323.79" y="60.00" width="124.93" height="288.00" fill="#059669" rx="6"/>
<text x="386.25" y="372" text-anchor="middle" font-family="sans-serif" font-size="13" fill="#111827">lstm</text>
<text x="386.25" y="52.00" text-anchor="middle" font-family="sans-serif" font-size="12" fill="#111827">0.2649</text>
<rect x="525.28" y="231.29" width="124.93" height="116.71" fill="#059669" rx="6"/>
<text x="587.75" y="372" text-anchor="middle" font-family="sans-serif" font-size="13" fill="#111827">transformer</text>
<text x="587.75" y="223.29" text-anchor="middle" font-family="sans-serif" font-size="12" fill="#111827">0.1073</text>
<rect x="726.78" y="124.52" width="124.93" height="223.48" fill="#059669" rx="6"/>
<text x="789.25" y="372" text-anchor="middle" font-family="sans-serif" font-size="13" fill="#111827">mamba</text>
<text x="789.25" y="116.52" text-anchor="middle" font-family="sans-serif" font-size="12" fill="#111827">0.2056</text>
<text x="20" y="220.00" transform="rotate(-90 20,220.00)" text-anchor="middle" font-family="sans-serif" font-size="13" fill="#374151">mean seconds</text>
</svg>